<?xml version="1.0" standalone="no"?>
<!DOCTYPE svg PUBLIC "-//W3C//DTD SVG 20010904//EN"
 "http://www.w3.org/TR/2001/REC-SVG-20010904/DTD/svg10.dtd">
<svg version="1.0" xmlns="http://www.w3.org/2000/svg"
 width="600.000000pt" height="600.000000pt" viewBox="0 0 600.000000 600.000000"
 preserveAspectRatio="xMidYMid meet">
<metadata>
Created by potrace 1.11, written by Peter Selinger 2001-2013
</metadata>
<g transform="translate(0.000000,600.000000) scale(0.100000,-0.100000)"
fill="#000000" stroke="none">
<path d="M722 5119 c-49 -24 -75 -57 -91 -114 -8 -29 -11 -471 -11 -1550 l0
-1510 -265 -3 -266 -2 3 -43 c3 -41 4 -42 54 -59 28 -9 89 -22 135 -28 60 -8
868 -10 2779 -8 l2695 3 80 25 80 25 3 43 3 42 -275 0 -276 0 0 1528 c0 1460
-1 1529 -19 1567 -22 48 -44 69 -94 90 -32 13 -282 15 -2264 15 l-2228 0 -43
-21z m1958 -901 c0 -7 -95 -271 -212 -585 l-213 -573 -77 0 c-43 0 -78 2 -78
4 0 4 205 558 372 1004 l61 162 73 0 c53 0 74 -4 74 -12z m391 -198 c35 -11
80 -30 99 -43 l34 -24 46 28 c204 124 499 45 606 -163 23 -44 28 -69 32 -150
4 -92 3 -101 -26 -162 -45 -95 -86 -151 -177 -240 -100 -98 -207 -178 -359
-269 l-118 -71 -65 33 c-99 52 -260 161 -348 238 -150 130 -252 278 -274 398
-19 103 19 223 96 306 115 123 292 170 454 119z m-1041 -270 l0 -89 -171 -101
c-94 -56 -168 -105 -164 -108 3 -4 79 -50 168 -102 l162 -96 3 -92 c1 -51 0
-92 -3 -92 -4 0 -79 42 -168 94 -89 51 -235 135 -325 186 -157 89 -186 110
-166 117 5 2 129 72 274 156 362 209 374 216 383 216 4 1 7 -39 7 -89z m1949
57 c29 -16 166 -94 303 -173 137 -80 260 -150 274 -156 44 -20 78 3 -345 -239
-161 -93 -295 -169 -297 -169 -2 0 -4 42 -4 93 l0 92 171 99 c114 66 167 102
161 108 -6 6 -82 52 -169 103 l-158 92 -3 93 c-1 50 1 90 5 88 4 -2 32 -16 62
-31z"/>
<path d="M2860 3885 c-107 -30 -170 -93 -191 -193 -9 -47 -9 -65 5 -107 43
-138 187 -280 451 -444 83 -53 75 -55 241 55 162 107 296 240 349 346 34 70
37 82 31 129 -4 29 -16 69 -26 89 -60 118 -238 169 -373 107 -48 -22 -63 -35
-94 -86 -21 -33 -42 -59 -46 -58 -5 2 -25 27 -45 57 -64 95 -185 137 -302 105z"/>
<path d="M681 1786 c2 -2 22 -6 44 -9 22 -3 60 -10 85 -15 69 -15 120 -15
1920 -15 1947 0 2336 3 2368 15 13 4 52 11 85 14 34 3 64 8 66 10 2 2 -1025 4
-2284 4 -1259 0 -2286 -2 -2284 -4z"/>
</g>
</svg>
