<?xml version="1.0" standalone="no"?>
<!DOCTYPE svg PUBLIC "-//W3C//DTD SVG 20010904//EN"
 "http://www.w3.org/TR/2001/REC-SVG-20010904/DTD/svg10.dtd">
<svg version="1.0" xmlns="http://www.w3.org/2000/svg"
 width="260.000000pt" height="260.000000pt" viewBox="0 0 260.000000 260.000000"
 preserveAspectRatio="xMidYMid meet">
<metadata>
Created by potrace 1.11, written by Peter Selinger 2001-2013
</metadata>
<g transform="translate(0.000000,260.000000) scale(0.100000,-0.100000)"
fill="#000000" stroke="none">
<path d="M495 2405 c-221 -49 -411 -232 -471 -455 -21 -80 -24 -252 -5 -330 7
-30 33 -97 58 -148 51 -108 5 -58 727 -800 264 -271 487 -492 496 -492 9 0
237 225 506 502 701 720 665 681 718 790 57 121 71 180 70 308 -1 176 -52 311
-165 433 -223 244 -576 274 -839 72 -32 -24 -110 -100 -174 -167 l-116 -123
-116 123 c-175 185 -262 244 -412 283 -86 22 -189 24 -277 4z m161 -139 c33
-26 7 -49 -72 -63 -38 -7 -87 -20 -109 -29 -104 -41 -200 -149 -237 -268 -15
-48 -19 -83 -16 -165 3 -90 1 -105 -14 -115 -14 -8 -22 -7 -35 7 -29 28 -31
207 -4 295 61 200 237 339 447 351 11 0 29 -5 40 -13z m718 -442 c9 -8 16 -21
16 -27 0 -23 -93 -382 -103 -394 -13 -18 -52 -16 -68 3 -11 13 -5 46 35 210
27 107 55 202 63 210 19 18 38 18 57 -2z m-266 -46 c24 -24 12 -54 -43 -108
l-54 -54 54 -57 c37 -39 55 -66 55 -83 0 -29 -31 -50 -59 -41 -23 7 -171 159
-171 175 0 7 37 50 82 96 81 83 110 98 136 72z m520 -72 c45 -46 82 -89 82
-96 0 -16 -148 -168 -171 -175 -28 -9 -59 12 -59 41 0 17 18 44 55 83 l54 57
-54 54 c-55 54 -67 84 -43 108 26 26 55 11 136 -72z m-1308 -223 c27 -34 23
-77 -7 -81 -29 -4 -77 58 -68 88 9 29 49 26 75 -7z m608 -195 c7 -7 12 -21 12
-33 0 -32 -19 -45 -65 -45 -46 0 -65 13 -65 45 0 32 19 45 65 45 23 0 46 -5
53 -12z m850 0 c7 -7 12 -21 12 -33 0 -12 -5 -26 -12 -33 -17 -17 -719 -17
-736 0 -15 15 -15 51 0 66 17 17 719 17 736 0z m-850 -180 c7 -7 12 -21 12
-33 0 -32 -19 -45 -65 -45 -23 0 -46 5 -53 12 -16 16 -15 65 1 71 24 10 93 7
105 -5z m322 -7 c10 -21 4 -51 -14 -63 -19 -13 -181 -9 -194 4 -15 15 -15 51
0 66 8 8 46 12 105 12 81 0 94 -2 103 -19z m308 7 c7 -7 12 -21 12 -33 0 -37
-19 -45 -109 -45 -48 0 -91 4 -97 8 -18 12 -24 42 -14 63 9 17 22 19 103 19
59 0 97 -4 105 -12z m-630 -180 c7 -7 12 -21 12 -33 0 -12 -5 -26 -12 -33 -16
-16 -90 -16 -106 0 -13 13 -16 60 -5 71 11 12 98 8 111 -5z m322 -9 c9 -16 8
-26 -5 -45 -14 -22 -21 -24 -103 -24 -93 0 -112 8 -112 45 0 38 19 45 117 45
83 0 93 -2 103 -21z m272 -4 c9 -21 8 -28 -7 -45 -14 -16 -31 -20 -81 -20 -56
0 -65 3 -79 24 -13 19 -14 29 -5 45 9 18 20 21 86 21 70 0 75 -2 86 -25z m266
-8 c5 -45 -13 -57 -84 -57 -66 0 -94 15 -94 49 0 33 22 42 100 39 74 -3 75 -3
78 -31z"/>
</g>
</svg>
