<?xml version="1.0" standalone="no"?>
<!DOCTYPE svg PUBLIC "-//W3C//DTD SVG 20010904//EN"
 "http://www.w3.org/TR/2001/REC-SVG-20010904/DTD/svg10.dtd">
<svg version="1.0" xmlns="http://www.w3.org/2000/svg"
 width="512.000000pt" height="512.000000pt" viewBox="0 0 512.000000 512.000000"
 preserveAspectRatio="xMidYMid meet">
<metadata>
Created by potrace 1.11, written by Peter Selinger 2001-2013
</metadata>
<g transform="translate(0.000000,512.000000) scale(0.100000,-0.100000)"
fill="#000000" stroke="none">
<path d="M980 4735 c-233 -44 -446 -159 -620 -334 -207 -208 -318 -446 -351
-751 -35 -323 77 -693 286 -944 57 -69 2249 -2328 2263 -2334 10 -3 2182 2232
2262 2328 213 255 325 616 291 944 -31 307 -142 547 -351 757 -144 145 -280
230 -473 294 -138 46 -239 59 -410 52 -108 -3 -165 -11 -241 -31 -127 -33
-299 -116 -401 -193 -44 -34 -203 -185 -353 -337 -154 -155 -284 -279 -298
-282 -13 -3 -35 -3 -49 0 -14 4 -140 123 -297 282 -150 152 -309 303 -353 337
-101 76 -271 158 -400 193 -85 22 -125 27 -265 30 -115 2 -188 -1 -240 -11z
m274 -191 c48 -48 26 -135 -37 -148 -12 -3 -51 -8 -87 -11 -136 -13 -289 -67
-399 -142 -70 -48 -169 -152 -222 -233 -121 -184 -164 -398 -128 -649 14 -101
7 -130 -38 -150 -70 -32 -117 3 -138 104 -108 514 190 1044 676 1204 95 31
193 49 275 50 64 1 74 -2 98 -25z m1461 -919 c16 -15 25 -36 25 -55 0 -29
-169 -720 -189 -773 -13 -34 -64 -60 -102 -52 -36 8 -69 49 -69 87 0 38 177
742 195 778 17 33 27 38 78 39 28 1 45 -6 62 -24z m-550 -90 c18 -17 25 -35
25 -61 0 -34 -10 -47 -117 -156 l-117 -118 118 -119 c108 -109 118 -121 118
-155 0 -69 -64 -110 -126 -81 -18 9 -99 83 -180 164 -142 145 -146 150 -146
192 0 42 3 46 158 201 155 154 159 158 201 158 31 0 48 -6 66 -25z m1057 -133
c156 -156 158 -159 158 -202 0 -43 -2 -46 -158 -202 -155 -154 -159 -158 -201
-158 -56 0 -91 33 -91 86 0 34 10 47 117 156 l117 118 -117 118 c-107 109
-117 122 -117 156 0 53 35 86 91 86 42 0 46 -4 201 -158z m-2694 -409 c41 -37
102 -126 102 -150 0 -54 -37 -92 -91 -93 -39 0 -54 12 -115 85 -50 61 -54 114
-11 151 34 29 86 32 115 7z m1269 -457 c22 -19 28 -32 28 -66 0 -34 -6 -47
-28 -66 -24 -21 -38 -24 -103 -24 -42 0 -84 5 -96 11 -31 17 -50 71 -37 108
16 44 51 60 136 61 62 0 76 -3 100 -24z m1722 9 c56 -29 58 -125 3 -154 -14
-8 -243 -11 -737 -11 l-717 0 -30 30 c-26 27 -30 36 -25 68 4 22 17 46 32 60
l26 22 710 0 c605 0 714 -2 738 -15z m-1715 -386 c29 -35 32 -58 12 -98 -20
-37 -55 -51 -131 -51 -57 0 -69 3 -96 28 -42 37 -44 95 -4 129 23 20 37 23
110 23 81 0 84 -1 109 -31z m640 0 c29 -35 32 -58 12 -98 -23 -44 -53 -51
-216 -51 -163 0 -193 7 -216 51 -20 40 -17 63 12 98 l26 31 178 0 178 0 26
-31z m640 0 c29 -35 32 -58 12 -98 -23 -44 -53 -51 -216 -51 -163 0 -193 7
-216 51 -20 40 -17 63 12 98 l26 31 178 0 178 0 26 -31z m-1305 -343 c28 -15
51 -53 51 -86 0 -10 -12 -32 -26 -49 -25 -30 -28 -31 -110 -31 -77 0 -87 2
-109 25 -42 42 -32 119 19 143 32 16 143 14 175 -2z m636 2 c29 -13 55 -55 55
-87 0 -11 -12 -33 -26 -50 l-26 -31 -178 0 -178 0 -26 31 c-39 46 -28 105 25
135 32 18 317 19 354 2z m554 -3 c54 -28 63 -94 18 -142 -19 -22 -28 -23 -153
-23 l-132 0 -26 31 c-39 46 -28 105 25 135 34 19 231 19 268 -1z m544 4 c54
-25 66 -101 22 -144 -23 -24 -29 -25 -152 -25 -133 1 -149 5 -171 47 -25 46
-5 104 42 123 31 13 231 12 259 -1z"/>
</g>
</svg>
