<?xml version="1.0" standalone="no"?>
<!DOCTYPE svg PUBLIC "-//W3C//DTD SVG 20010904//EN"
 "http://www.w3.org/TR/2001/REC-SVG-20010904/DTD/svg10.dtd">
<svg version="1.0" xmlns="http://www.w3.org/2000/svg"
 width="582.000000pt" height="582.000000pt" viewBox="0 0 582.000000 582.000000"
 preserveAspectRatio="xMidYMid meet">
<metadata>
Created by potrace 1.11, written by Peter Selinger 2001-2013
</metadata>
<g transform="translate(0.000000,582.000000) scale(0.100000,-0.100000)"
fill="#000000" stroke="none">
<path d="M754 4540 c-30 -12 -80 -65 -91 -97 -6 -17 -9 -556 -9 -1393 l1
-1365 22 -35 c12 -19 39 -44 59 -55 37 -20 57 -20 2148 -20 l2111 0 42 30 c23
17 48 44 55 60 10 24 13 305 13 1400 0 1357 0 1370 -20 1405 -12 21 -39 44
-65 58 l-44 22 -2101 -1 c-1155 0 -2109 -4 -2121 -9z m4211 -132 c5 -5 10
-2334 6 -2655 l-1 -43 -2090 0 -2090 0 0 148 c-4 1291 0 2546 8 2551 14 8
4159 7 4167 -1z"/>
<path d="M2349 3792 c-9 -2 -63 -136 -143 -355 -70 -194 -181 -496 -247 -672
-65 -176 -119 -326 -121 -334 -2 -12 12 -15 71 -15 l74 -1 43 115 c84 225 173
467 213 580 23 63 46 124 51 135 5 11 29 76 53 145 25 69 50 136 56 150 11 27
91 248 91 252 0 4 -123 4 -141 0z"/>
<path d="M2689 3571 c-208 -56 -342 -205 -364 -407 -23 -219 169 -482 528
-722 132 -89 267 -166 289 -164 9 0 58 26 109 56 50 31 94 56 96 56 12 0 239
167 292 215 255 229 356 434 307 623 -42 164 -148 275 -317 333 -72 24 -204
32 -278 16 -55 -11 -158 -58 -186 -85 -20 -18 -21 -18 -79 20 -33 21 -82 45
-110 54 -76 23 -208 26 -287 5z"/>
<path d="M1535 3239 c-93 -54 -192 -112 -220 -128 -27 -16 -128 -74 -223 -129
l-173 -100 28 -14 c25 -13 477 -275 563 -327 19 -11 42 -24 50 -28 8 -4 44
-24 79 -45 36 -21 69 -38 73 -38 3 0 6 40 6 89 l-1 89 -216 126 c-119 69 -225
132 -235 139 -16 12 2 25 170 123 104 60 193 111 199 114 5 3 26 16 46 28 l37
23 -1 89 c0 50 -3 90 -6 89 -3 0 -82 -45 -176 -100z"/>
<path d="M4009 3333 c-1 -15 -1 -117 0 -148 1 -26 10 -35 69 -67 37 -21 87
-50 112 -64 25 -14 99 -58 165 -96 66 -39 121 -71 123 -73 2 -1 -97 -60 -220
-130 -123 -70 -229 -134 -237 -140 -14 -13 -22 -157 -10 -177 7 -10 8 -10 204
104 72 42 146 85 165 96 127 71 406 235 413 241 4 4 -84 60 -195 125 -112 64
-214 123 -228 131 -132 77 -182 105 -187 105 -3 0 -17 8 -31 18 -52 36 -142
83 -143 75z"/>
<path d="M325 1451 c-3 -2 -5 -35 -5 -73 0 -55 4 -72 20 -88 20 -20 33 -20
2540 -20 2507 0 2520 0 2540 20 16 16 20 33 20 93 l0 73 -1047 0 -1048 -1 -27
-27 c-15 -16 -33 -28 -40 -29 -72 -5 -770 -3 -793 3 -16 4 -38 18 -49 30 l-18
23 -1044 1 c-575 0 -1047 -2 -1049 -5z"/>
</g>
</svg>
