<?xml version="1.0" standalone="no"?>
<!DOCTYPE svg PUBLIC "-//W3C//DTD SVG 20010904//EN"
 "http://www.w3.org/TR/2001/REC-SVG-20010904/DTD/svg10.dtd">
<svg version="1.0" xmlns="http://www.w3.org/2000/svg"
 width="512.000000pt" height="512.000000pt" viewBox="0 0 512.000000 512.000000"
 preserveAspectRatio="xMidYMid meet">
<metadata>
Created by potrace 1.11, written by Peter Selinger 2001-2013
</metadata>
<g transform="translate(0.000000,512.000000) scale(0.100000,-0.100000)"
fill="#000000" stroke="none">
<path d="M424 4181 c-25 -11 -50 -33 -65 -57 l-24 -39 0 -1376 0 -1375 25 -37
c14 -21 41 -45 60 -55 34 -16 150 -17 2146 -17 l2110 0 36 25 c20 13 44 38 55
55 17 29 18 87 19 1395 1 1523 6 1419 -67 1471 l-34 24 -2110 2 c-2039 3
-2111 2 -2151 -16z m4221 -122 c6 -7 8 -2689 1 -2696 -6 -6 -4166 -6 -4172 0
-10 10 -5 2690 4 2696 13 8 4159 8 4167 0z"/>
<path d="M2124 3183 c-13 -29 -24 -56 -24 -58 0 -5 -218 -598 -274 -747 -23
-62 -24 -68 -8 -69 32 -2 84 -1 86 3 3 4 89 235 174 468 34 91 84 227 112 303
28 77 50 140 48 142 -2 2 -23 5 -47 8 l-43 4 -24 -54z"/>
<path d="M2426 3078 c-86 -18 -176 -78 -217 -144 -111 -180 -14 -391 281 -612
114 -86 259 -172 278 -165 10 4 64 36 122 71 227 141 381 290 444 434 58 130
11 282 -110 362 -131 86 -325 77 -425 -19 l-37 -34 -18 20 c-64 71 -208 110
-318 87z"/>
<path d="M1423 2777 c-144 -83 -260 -154 -257 -158 3 -6 132 -82 402 -237
l122 -70 0 63 c0 59 -2 64 -27 78 -56 28 -258 149 -271 161 -11 10 17 30 142
102 l156 89 0 63 c0 34 -1 62 -2 62 -2 -1 -121 -69 -265 -153z"/>
<path d="M3402 2869 l3 -63 150 -88 c82 -48 151 -91 152 -95 2 -8 -18 -21
-204 -129 l-102 -59 1 -62 2 -61 46 26 c358 206 480 278 480 283 0 4 -69 46
-152 94 -202 116 -205 117 -266 153 -28 18 -66 39 -83 47 l-31 16 4 -62z"/>
<path d="M0 1035 c0 -46 5 -78 14 -91 14 -19 52 -19 2546 -19 2494 0 2532 0
2546 19 9 13 14 45 14 91 l0 71 -1047 0 -1048 -1 -27 -27 c-15 -16 -33 -28
-40 -29 -75 -5 -770 -3 -793 3 -16 4 -38 18 -49 30 l-18 23 -1049 1 -1049 0 0
-71z"/>
</g>
</svg>
