<?xml version="1.0"?>
<svg xmlns="http://www.w3.org/2000/svg" height="512px" viewBox="0 -91 512 512" width="512px" class=""><g transform="matrix(0.489597 0 0 0.489597 128.312 67.3701)"><path d="m504.5 30.605469h-22.5v-15.570313c0-8.289062-6.746094-15.035156-15.035156-15.035156h-180.359375c-12.523438 0-23.65625 6.074219-30.605469 15.433594-6.949219-9.359375-18.082031-15.433594-30.605469-15.433594h-180.359375c-8.289062 0-15.035156 6.746094-15.035156 15.035156v15.566406h-22.5c-4.140625 0-7.5 3.359376-7.5 7.5v284.71875c0 4.140626 3.359375 7.5 7.5 7.5h63.257812c4.140626 0 7.5-3.359374 7.5-7.5 0-4.140624-3.359374-7.5-7.5-7.5h-55.757812v-269.714843h15v239.074219c0 8.292968 6.746094 15.039062 15.035156 15.039062h180.359375c10.117188 0 18.726563 6.535156 21.847657 15.601562h-141.484376c-4.140624 0-7.5 3.359376-7.5 7.5 0 4.144532 3.359376 7.5 7.5 7.5h398.742188c4.140625 0 7.5-3.355468 7.5-7.5v-284.714843c0-4.144531-3.359375-7.5-7.5-7.5zm-279.105469 254.109375-180.394531-.035156.035156-269.679688h180.359375c12.742188 0 23.105469 10.367188 23.105469 23.105469v7.882812h-2.140625c-10.5625 0-19.160156 8.597657-19.160156 19.160157s8.597656 19.15625 19.160156 19.15625h2.140625v20.828124h-2.140625c-10.5625 0-19.160156 8.59375-19.160156 19.15625s8.597656 19.15625 19.160156 19.15625h2.140625v20.828126h-2.140625c-10.5625 0-19.160156 8.59375-19.160156 19.15625s8.597656 19.15625 19.160156 19.15625h2.140625v20.828124h-2.140625c-10.5625 0-19.160156 8.59375-19.160156 19.15625s8.597656 19.15625 19.160156 19.15625h2.140625v30.8125c-6.414062-4.90625-14.425781-7.824218-23.105469-7.824218zm20.964844-215.410156c-2.292969 0-4.160156-1.867188-4.160156-4.15625 0-2.292969 1.867187-4.160157 4.160156-4.160157h19.28125c2.292969 0 4.160156 1.867188 4.160156 4.160157 0 2.289062-1.867187 4.15625-4.160156 4.15625zm0 59.140624c-2.292969 0-4.160156-1.867187-4.160156-4.15625 0-2.292968 1.867187-4.15625 4.160156-4.15625h19.28125c2.292969 0 4.160156 1.863282 4.160156 4.15625 0 2.289063-1.867187 4.15625-4.160156 4.15625zm0 59.140626c-2.292969 0-4.160156-1.867188-4.160156-4.15625 0-2.292969 1.867187-4.160157 4.160156-4.160157h19.28125c2.292969 0 4.160156 1.867188 4.160156 4.160157 0 2.289062-1.867187 4.15625-4.160156 4.15625zm0 59.140624c-2.292969 0-4.160156-1.867187-4.160156-4.15625 0-2.292968 1.867187-4.160156 4.160156-4.160156h19.28125c2.292969 0 4.160156 1.867188 4.160156 4.160156 0 2.289063-1.867187 4.15625-4.160156 4.15625zm250.640625 68.59375h-232.242188c3.121094-9.066406 11.730469-15.605468 21.847657-15.605468h180.359375c8.289062 0 15.035156-6.742188 15.035156-15.035156v-196.191407c0-4.140625-3.359375-7.5-7.5-7.5s-7.5 3.359375-7.5 7.5l-.035156 196.226563h-180.359375c-8.679688 0-16.691407 2.917968-23.105469 7.824218v-30.8125h2.140625c10.5625 0 19.160156-8.59375 19.160156-19.160156 0-10.5625-8.597656-19.15625-19.160156-19.15625h-2.140625v-20.824218h2.140625c10.5625 0 19.160156-8.597657 19.160156-19.160157s-8.597656-19.15625-19.160156-19.15625h-2.140625v-20.828125h2.140625c10.5625 0 19.160156-8.59375 19.160156-19.15625s-8.597656-19.15625-19.160156-19.15625h-2.140625v-20.828125h2.140625c10.5625 0 19.160156-8.59375 19.160156-19.15625s-8.597656-19.15625-19.160156-19.15625h-2.140625v-7.882812c0-12.742188 10.367188-23.109375 23.105469-23.109375l180.394531.039062v38.453125c0 4.144531 3.359375 7.5 7.5 7.5s7.5-3.355469 7.5-7.5v-7.882812h15zm0 0" data-original="#000000" class="active-path" data-old_color="#060606" fill="#FDFBFB"/><path d="m185.996094 201.617188h-13.191406v-21.457032c0-4.140625-3.355469-7.5-7.5-7.5-4.140626 0-7.5 3.359375-7.5 7.5v28.957032c0 4.140624 3.359374 7.5 7.5 7.5h20.691406c.65625 0 1.1875.53125 1.1875 1.183593v19.738281c0 .65625-.53125 1.1875-1.1875 1.1875h-78.492188c-.65625 0-1.1875-.53125-1.1875-1.1875v-19.738281c0-.652343.53125-1.183593 1.1875-1.183593h20.691406c4.140626 0 7.5-3.359376 7.5-7.5v-50.390626c0-4.140624-3.359374-7.5-7.5-7.5h-16.871093c-.65625 0-1.1875-.53125-1.1875-1.1875v-19.738281c0-.652343.53125-1.1875 1.1875-1.1875h46.480469v16.046875c0 4.140625 3.359374 7.5 7.5 7.5 4.140624 0 7.5-3.359375 7.5-7.5v-16.8125c0-7.847656-6.382813-14.230468-14.230469-14.230468h-47.25c-8.925781 0-16.1875 7.261718-16.1875 16.1875v19.734374c0 8.925782 7.261719 16.1875 16.1875 16.1875h9.371093v35.390626h-13.191406c-8.925781 0-16.1875 7.261718-16.1875 16.1875v19.738281c0 8.925781 7.261719 16.183593 16.1875 16.183593h78.492188c8.925781 0 16.1875-7.257812 16.1875-16.183593v-19.738281c0-8.925782-7.261719-16.1875-16.1875-16.1875zm0 0" data-original="#000000" class="active-path" data-old_color="#060606" fill="#FDFBFB"/><path d="m146.75 103.101562c15.746094 0 28.554688-12.808593 28.554688-28.554687s-12.808594-28.558594-28.554688-28.558594-28.554688 12.8125-28.554688 28.558594 12.808594 28.554687 28.554688 28.554687zm0-42.113281c7.476562 0 13.554688 6.082031 13.554688 13.558594 0 7.472656-6.078126 13.554687-13.554688 13.554687s-13.554688-6.082031-13.554688-13.554687c0-7.476563 6.078126-13.558594 13.554688-13.558594zm0 0" data-original="#000000" class="active-path" data-old_color="#060606" fill="#FDFBFB"/><path d="m360.648438 210.417969h-46.675782c-6.324218 0-11.472656 5.144531-11.472656 11.472656v36.351563c0 6.328124 5.148438 11.472656 11.472656 11.472656h46.675782c6.324218 0 11.472656-5.144532 11.472656-11.472656v-36.351563c0-6.328125-5.148438-11.472656-11.472656-11.472656zm-3.527344 44.296875h-39.621094v-29.296875h39.621094zm0 0" data-original="#000000" class="active-path" data-old_color="#060606" fill="#FDFBFB"/><path d="m440.527344 99.558594h-126.554688c-6.324218 0-11.472656 5.144531-11.472656 11.472656v77.65625c0 6.324219 5.148438 11.472656 11.472656 11.472656h126.554688c6.324218 0 11.472656-5.148437 11.472656-11.472656v-77.65625c0-6.328125-5.148438-11.472656-11.472656-11.472656zm-3.527344 85.601562h-119.5v-70.601562h119.5zm0 0" data-original="#000000" class="active-path" data-old_color="#060606" fill="#FDFBFB"/><path d="m313.972656 89.300781h46.675782c6.324218 0 11.472656-5.148437 11.472656-11.476562v-36.351563c0-6.324218-5.148438-11.472656-11.472656-11.472656h-46.675782c-6.324218 0-11.472656 5.148438-11.472656 11.472656v36.351563c0 6.328125 5.148438 11.476562 11.472656 11.476562zm3.527344-44.300781h39.621094v29.300781h-39.621094zm0 0" data-original="#000000" class="active-path" data-old_color="#060606" fill="#FDFBFB"/><path d="m440.527344 210.417969h-46.675782c-6.324218 0-11.472656 5.144531-11.472656 11.472656v36.351563c0 6.328124 5.148438 11.472656 11.472656 11.472656h46.675782c6.324218 0 11.472656-5.144532 11.472656-11.472656v-36.351563c0-6.328125-5.148438-11.472656-11.472656-11.472656zm-3.527344 44.296875h-39.621094v-29.296875h39.621094zm0 0" data-original="#000000" class="active-path" data-old_color="#060606" fill="#FDFBFB"/><path d="m440.527344 30h-46.675782c-6.324218 0-11.472656 5.148438-11.472656 11.472656v36.351563c0 6.328125 5.148438 11.476562 11.472656 11.476562h46.675782c6.324218 0 11.472656-5.148437 11.472656-11.476562v-36.351563c0-6.324218-5.148438-11.472656-11.472656-11.472656zm-3.527344 44.300781h-39.621094v-29.300781h39.621094zm0 0" data-original="#000000" class="active-path" data-old_color="#060606" fill="#FDFBFB"/></g> </svg>
