<?xml version="1.0"?>
<svg xmlns="http://www.w3.org/2000/svg" xmlns:xlink="http://www.w3.org/1999/xlink" version="1.1" id="Capa_1" x="0px" y="0px" viewBox="0 0 512 512" style="enable-background:new 0 0 512 512;" xml:space="preserve" width="512px" height="512px"><g><g>
	<g>
		<path d="M482,201h-63V57c0-16.542-13.458-30-30-30H123c-16.542,0-30,13.458-30,30v90H30c-16.542,0-30,13.458-30,30v184    c0,16.542,13.458,30,30,30h88.858l37.071,37.071c1.953,1.953,4.512,2.929,7.071,2.929s5.119-0.976,7.071-2.929L186,412.142V415    c0,16.542,13.458,30,30,30h88.858l37.071,37.071c1.953,1.953,4.512,2.929,7.071,2.929s5.119-0.976,7.071-2.929L393.142,445H482    c16.542,0,30-13.458,30-30V231C512,214.458,498.542,201,482,201z M113,57c0-5.514,4.486-10,10-10h266c5.514,0,10,4.486,10,10v184    c0,5.514-4.486,10-10,10h-93c-2.652,0-5.196,1.054-7.071,2.929L256,286.858l-32.929-32.929C221.196,252.054,218.652,251,216,251    h-93c-5.514,0-10-4.486-10-10V57z M195.929,373.929L163,406.858l-32.929-32.929C128.196,372.054,125.652,371,123,371H30    c-5.514,0-10-4.486-10-10V177c0-5.514,4.486-10,10-10h63v74c0,16.542,13.458,30,30,30h88.858l37.071,37.071    c1.953,1.953,4.512,2.929,7.071,2.929s5.119-0.976,7.071-2.929L300.142,271H306v90c0,5.514-4.486,10-10,10h-93    C200.348,371,197.804,372.054,195.929,373.929z M492,415c0,5.514-4.486,10-10,10h-93c-2.652,0-5.196,1.054-7.071,2.929    L349,460.858l-32.929-32.929C314.196,426.054,311.652,425,309,425h-93c-5.514,0-10-4.486-10-10v-22.858l1.142-1.142H296    c16.542,0,30-13.458,30-30v-90h63c16.542,0,30-13.458,30-30v-20h63c5.514,0,10,4.486,10,10V415z" data-original="#000000" class="active-path" data-old_color="#000000" fill="#FDFAFA"/>
	</g>
</g><g>
	<g>
		<path d="M349,83H163.148c-5.523,0-10,4.477-10,10s4.477,10,10,10H349c5.523,0,10-4.477,10-10S354.523,83,349,83z" data-original="#000000" class="active-path" data-old_color="#000000" fill="#FDFAFA"/>
	</g>
</g><g>
	<g>
		<path d="M356.07,141.93c-1.86-1.86-4.44-2.93-7.07-2.93s-5.21,1.07-7.07,2.93c-1.86,1.86-2.93,4.44-2.93,7.07s1.07,5.21,2.93,7.07    S346.37,159,349,159s5.21-1.07,7.07-2.93c1.86-1.86,2.93-4.44,2.93-7.07S357.93,143.79,356.07,141.93z" data-original="#000000" class="active-path" data-old_color="#000000" fill="#FDFAFA"/>
	</g>
</g><g>
	<g>
		<path d="M299.345,139H163.148c-5.523,0-10,4.477-10,10s4.477,10,10,10h136.197c5.523,0,10-4.477,10-10S304.868,139,299.345,139z" data-original="#000000" class="active-path" data-old_color="#000000" fill="#FDFAFA"/>
	</g>
</g><g>
	<g>
		<path d="M349,195H212.071c-5.523,0-10,4.477-10,10s4.477,10,10,10H349c5.523,0,10-4.477,10-10S354.523,195,349,195z" data-original="#000000" class="active-path" data-old_color="#000000" fill="#FDFAFA"/>
	</g>
</g><g>
	<g>
		<path d="M163.837,195H163c-5.523,0-10,4.477-10,10s4.477,10,10,10h0.837c5.523,0,10-4.477,10-10S169.36,195,163.837,195z" data-original="#000000" class="active-path" data-old_color="#000000" fill="#FDFAFA"/>
	</g>
</g></g> </svg>
