<?xml version="1.0"?>
<svg xmlns="http://www.w3.org/2000/svg" id="Capa_1" enable-background="new 0 0 548.398 548.398" height="512px" viewBox="0 0 548.398 548.398" width="512px" class=""><g transform="matrix(0.4939 0 0 0.4939 136.303 96.7907)"><path d="m61.827 168.028-8.043 7.785c-3.502 3.36-9.045 3.314-12.491-.102l-24.045-24.044c-2.656-2.656-6.962-2.656-9.618 0-.393.393-.736.833-1.022 1.31-10.324 17.203-6.65 34.371-1.753 45.746 4.519 10.775 12.637 19.648 22.969 25.103 11.378 5.809 24.566 6.976 36.787 3.256 2.201-.668 4.591-.086 6.239 1.52l22.149 22.148c2.656 2.656 6.963 2.656 9.618-.001 2.656-2.656 2.656-6.963-.001-9.618l-22.141-22.145c-5.156-5.117-12.69-7.019-19.657-4.964-8.888 2.727-18.487 1.905-26.781-2.295-7.522-4.012-13.42-10.509-16.687-18.384-2.811-6.526-5.117-15.554-2.637-24.973l16.96 16.962c8.712 8.634 22.719 8.748 31.57.258l8.122-7.862c.053-.052.106-.104.158-.157l7.863-8.122c8.49-8.851 8.376-22.857-.258-31.568l-16.962-16.962c9.417-2.478 18.449-.173 24.975 2.638 7.874 3.267 14.372 9.163 18.386 16.684 4.201 8.294 5.023 17.894 2.293 26.782-2.055 6.967-.152 14.501 4.964 19.657l77.585 77.585h-149.754c-3.756 0-6.801 3.045-6.801 6.801v19.136c.018 12.017 8.99 22.136 20.919 23.593v111.351c.024 21.374 17.344 38.695 38.718 38.72h363.862c21.374-.024 38.695-17.346 38.719-38.72v-111.351c11.928-1.457 20.9-11.576 20.919-23.593v-19.138c0-3.756-3.045-6.801-6.801-6.801h-166.852l68.236-80.387.012-.016c1.082-1.34 1.643-3.026 1.58-4.747 0-.057 0-.118 0-.171-.035-.413-.107-.823-.215-1.223 0-.022 0-.046-.012-.068-.244-.874-.66-1.689-1.225-2.399-2.603-3.292-4.002-7.374-3.964-11.571.111-12.477-3.82-22.429-11.365-28.769-5.552-4.665-12.853-7.234-21.809-7.691 2.518-2.194 5.216-4.172 8.066-5.911 16.641-10.123 36.421-10.995 58.787-2.584 4.821 1.855 9.329 4.438 13.367 7.659l29.545 23.197c1.078.843 1.775 2.082 1.935 3.441l1.295 10.658c1.245 10.291 10.596 17.623 20.887 16.378.775-.094 1.544-.236 2.302-.425l6.692-1.673c1.539-.391 3.173-.046 4.423.933l10.609 8.252c2.675 2.079 3.158 5.932 1.079 8.607-.01.013-.021.027-.031.04l-26.607 33.679c-2.054 2.631-5.84 3.124-8.5 1.108l-8.6-6.45c-1.099-.82-1.824-2.045-2.013-3.403l-.916-6.407c-1.465-10.262-10.972-17.393-21.234-15.928-.793.113-1.578.277-2.349.49l-6.54 1.808c-6.465 1.778-13.391.365-18.643-3.805l-8.25-6.573c-2.912-2.372-7.196-1.934-9.568.978s-1.934 7.196.978 9.568c.038.031.076.062.115.092l7.829 6.239-27.675 33.873c-2.342 2.938-1.859 7.218 1.079 9.559 2.888 2.302 7.085 1.879 9.456-.952l29.427-36.019c6.156 1.8 12.692 1.854 18.877.154l6.539-1.808c2.749-.761 5.595.85 6.356 3.6.059.213.104.43.136.65l.917 6.407c.691 4.931 3.325 9.382 7.317 12.359l8.6 6.45c8.554 6.488 20.733 4.901 27.339-3.562l26.592-33.684c6.756-8.556 5.297-20.968-3.259-27.723-.038-.03-.076-.06-.115-.09l-10.607-8.256c-4.545-3.556-10.48-4.809-16.074-3.394l-6.689 1.674c-2.769.692-5.574-.991-6.266-3.76-.052-.208-.091-.42-.117-.633l-1.295-10.661c-.585-4.937-3.116-9.436-7.033-12.498l-29.545-23.199c-5.13-4.08-10.856-7.35-16.978-9.693-63.52-23.895-93.236 25.318-93.527 25.818-1.896 3.242-.805 7.408 2.437 9.304 1.406.822 3.061 1.113 4.663.818 12.958-2.386 22.327-1.248 27.844 3.389 5.476 4.6 6.563 12.455 6.512 18.233-.039 5.359 1.265 10.643 3.793 15.369l-72.442 85.338h-27.485l-54.21-114.584 9.938-4.766c3.387-1.623 4.816-5.684 3.193-9.071-.284-.593-.653-1.142-1.096-1.63l-43.008-47.436c-2.022-2.228-5.266-2.864-7.979-1.564l-25.464 12.212c-2.713 1.301-4.249 4.23-3.776 7.201l10.069 63.236c.59 3.709 4.076 6.237 7.784 5.647.65-.103 1.281-.3 1.874-.585l9.873-4.734 38.188 80.719c1.578 3.408 5.621 4.892 9.029 3.313 3.408-1.578 4.892-5.621 3.313-9.03-.015-.033-.031-.067-.047-.1l-41.113-86.901c-1.608-3.394-5.663-4.841-9.057-3.233-.01.005-.021.01-.031.015l-7.815 3.748-7.837-49.219 16.318-7.826 33.475 36.925-7.815 3.747c-3.375 1.618-4.808 5.659-3.206 9.041l54.35 114.883h-73.314l-87.204-87.204c-1.606-1.647-2.188-4.037-1.52-6.239 3.722-12.221 2.555-25.409-3.255-36.787-5.456-10.333-14.328-18.452-25.104-22.972-11.374-4.899-28.543-8.571-45.747 1.751-3.221 1.933-4.265 6.112-2.332 9.333.286.476.629.916 1.022 1.309l24.044 24.045c3.416 3.446 3.461 8.988.102 12.49zm231.815 109.836h76.402v22.515h-189.323v-22.515zm-126.523 0v35.808c-.006 4.627-3.756 8.377-8.383 8.383h-14.952c-4.627-.006-8.377-3.756-8.382-8.383v-35.808zm336.229 12.335c-.007 5.62-4.562 10.174-10.182 10.181h-40.391c-3.756-.049-6.842 2.956-6.891 6.713s2.956 6.842 6.713 6.891c.059.001.119.001.178 0h29.653v111.156c-.016 13.865-11.252 25.1-25.116 25.116h-363.862c-13.865-.015-25.102-11.251-25.118-25.116v-111.155h29.662c3.756-.049 6.762-3.134 6.713-6.891-.048-3.687-3.026-6.664-6.713-6.713h-40.397c-5.62-.007-10.174-4.561-10.181-10.181v-12.337h74.377v35.808c.014 12.138 9.852 21.974 21.99 21.985h14.949c12.013-.014 21.793-9.661 21.972-21.672h189.354c.179 12.01 9.958 21.657 21.97 21.672h14.958c12.136-.015 21.97-9.85 21.984-21.985v-35.808h74.378zm-87.98-12.335v35.808c-.006 4.627-3.755 8.377-8.382 8.383h-14.957c-4.627-.006-8.376-3.756-8.382-8.383v-35.808z" data-original="#000000" class="active-path" data-old_color="#000000" fill="#F7F4F4"/></g> </svg>
